<?xml version="1.0" encoding="utf-8" ?>
<svg xmlns="http://www.w3.org/2000/svg" xmlns:xlink="http://www.w3.org/1999/xlink" width="1024" height="1024">
	<path fill="#FEFEFE" d="M0 0L1024 0L1024 1024L0 1024L0 0Z"/>
	<path fill="#010101" d="M280.449 243.754L280.419 245.286C279.517 246.153 279.11 246.018 277.912 246.224C242.745 251.441 211.189 267.622 189.747 296.596C176.072 315.075 170.362 337.523 168.927 360.119L166.456 360.005C167.64 336.393 175.085 312.361 189.304 293.332C211.618 263.47 244.392 248.926 280.449 243.754Z"/>
	<path fill="#010101" d="M167.902 416.922C168.406 415.804 168.91 415.908 169.999 415.447C169.994 415.604 169.992 415.761 169.985 415.917C169.63 423.634 166.721 432.295 164.107 439.531C159.206 453.099 152.125 465.168 142.815 476.185C120.974 502.032 99.8884 513.551 89.9076 549.243C85.9208 563.499 85.1075 578.123 87.0153 592.788Q87.289 594.866 87.64 596.932Q87.991 598.999 88.4188 601.051Q88.8466 603.103 89.3508 605.137Q89.8549 607.172 90.4345 609.186Q91.0142 611.2 91.6686 613.191Q92.323 615.182 93.0513 617.148Q93.7795 619.113 94.5806 621.05Q95.3817 622.987 96.2544 624.892Q97.1272 626.798 98.0705 628.67Q99.0138 630.542 100.026 632.377Q101.039 634.212 102.119 636.008Q103.199 637.804 104.346 639.559Q105.492 641.314 106.703 643.024Q107.914 644.735 109.188 646.399Q110.463 648.063 111.798 649.679Q113.133 651.294 114.528 652.859C124.418 663.986 130.387 666.203 141.503 674.336C151.464 681.625 160.033 691.77 166.118 702.467C191.801 747.619 166.388 784.525 186.839 827.902C196.402 848.185 211.081 861.277 229.368 873.504L231.052 876.83C220.36 872.186 209.756 862.79 201.862 854.345C182.505 833.641 174.882 807.74 175.648 779.751C176.049 765.132 177.489 750.305 175.394 735.761C173.978 725.927 170.596 715.961 166.143 707.098Q164.956 704.784 163.635 702.545Q162.313 700.306 160.862 698.149Q159.41 695.992 157.833 693.924Q156.257 691.857 154.561 689.886Q152.865 687.915 151.055 686.048Q149.245 684.181 147.328 682.425Q145.411 680.668 143.394 679.028Q141.376 677.388 139.265 675.87C133.95 672.066 128.261 668.69 123.222 664.516C115.118 657.8 107.992 649.399 102.307 640.558C76.0916 599.785 77.1937 547.712 107.962 509.703C120.595 494.097 136.903 481.97 148.277 465.289C158.496 450.303 164.139 434.518 167.902 416.922Z"/>
	<path fill="#DA665B" d="M166.456 360.005L168.927 360.119C177.791 362.624 185.091 366.091 189.734 374.578C193.335 381.161 194.282 389.428 192.084 396.621C189.969 403.546 184.852 409.704 178.373 412.973C176.151 414.094 172.448 415.788 169.999 415.447C168.91 415.908 168.406 415.804 167.902 416.922C166.815 415.384 156.631 414.8 154.111 413.923C151.23 412.92 148.262 411.091 145.96 409.078Q145.425 408.613 144.914 408.121Q144.403 407.63 143.918 407.113Q143.432 406.597 142.972 406.057Q142.513 405.517 142.081 404.955Q141.648 404.393 141.245 403.811Q140.841 403.228 140.467 402.626Q140.093 402.023 139.749 401.403Q139.405 400.783 139.093 400.147Q138.781 399.511 138.5 398.859Q138.22 398.208 137.972 397.544Q137.724 396.88 137.51 396.204Q137.296 395.528 137.115 394.843Q136.935 394.157 136.789 393.463Q136.643 392.77 136.531 392.07Q136.42 391.369 136.344 390.665Q136.267 389.96 136.226 389.252C135.778 381.595 138.631 374.427 143.839 368.879C150.138 362.167 157.628 360.358 166.456 360.005Z"/>
	<path fill="#FEFEFE" d="M370.397 228.253C372.104 203.314 379.237 183.591 398.592 166.864C414.532 153.088 437.041 145.99 457.987 147.688C480.635 149.523 499.292 160.557 515.274 176.036C528.733 160.226 546.585 149.867 567.485 148.149Q569.423 147.991 571.367 147.928Q573.311 147.866 575.255 147.899Q577.2 147.932 579.14 148.06Q581.081 148.189 583.013 148.412Q584.945 148.636 586.863 148.954Q588.782 149.273 590.682 149.685Q592.583 150.097 594.461 150.602Q596.339 151.107 598.19 151.704Q600.041 152.301 601.86 152.988Q603.68 153.675 605.463 154.451Q607.247 155.226 608.99 156.089Q610.733 156.951 612.432 157.898Q614.13 158.845 615.78 159.874Q617.431 160.903 619.028 162.012Q620.626 163.121 622.167 164.307Q623.708 165.493 625.189 166.754Q626.66 168.024 628.068 169.363Q629.477 170.702 630.819 172.108Q632.161 173.514 633.433 174.982Q634.706 176.451 635.906 177.98Q637.106 179.508 638.231 181.093Q639.356 182.677 640.404 184.314Q641.451 185.951 642.418 187.637Q643.385 189.323 644.27 191.053Q645.155 192.783 645.955 194.554Q646.755 196.325 647.469 198.133Q648.182 199.941 648.808 201.78Q649.434 203.62 649.97 205.488Q650.506 207.356 650.952 209.248Q651.397 211.139 651.751 213.05Q652.105 214.961 652.366 216.887Q652.627 218.813 652.795 220.749C653.122 224.822 653.04 228.936 652.954 233.018C671.001 230.868 681.581 223.066 697.683 216.893C729.778 204.588 768.066 211.711 794.794 232.885Q795.767 233.67 796.721 234.478Q797.674 235.286 798.608 236.117Q799.542 236.948 800.455 237.802Q801.368 238.656 802.26 239.532Q803.151 240.408 804.022 241.305Q804.892 242.202 805.74 243.121Q806.588 244.039 807.413 244.978Q808.239 245.917 809.041 246.875Q809.843 247.834 810.622 248.812Q811.4 249.79 812.154 250.787Q812.909 251.783 813.639 252.798Q814.369 253.813 815.073 254.845Q815.778 255.878 816.458 256.927Q817.137 257.976 817.79 259.042Q818.444 260.107 819.071 261.189Q819.699 262.27 820.299 263.366Q820.9 264.462 821.474 265.573Q822.047 266.683 822.594 267.808Q823.14 268.932 823.659 270.069Q824.178 271.206 824.669 272.356Q825.16 273.506 825.622 274.667Q826.085 275.828 826.519 277Q826.953 278.172 827.359 279.355Q827.764 280.537 828.141 281.729Q828.517 282.921 828.864 284.122Q829.211 285.323 829.529 286.532Q829.847 287.741 830.135 288.957Q830.423 290.174 830.681 291.397Q830.939 292.62 831.168 293.849Q831.396 295.078 831.594 296.312Q831.792 297.546 831.96 298.785Q832.128 300.024 832.266 301.266C835.549 331.677 824.802 356.621 840.741 386.07C845.687 395.208 852.105 403.176 860.199 409.714C870.488 418.025 882.04 421.476 893.506 427.388Q894.707 428.011 895.888 428.671Q897.069 429.331 898.229 430.027Q899.389 430.723 900.527 431.454Q901.666 432.185 902.781 432.95Q903.897 433.716 904.988 434.515Q906.079 435.314 907.146 436.147Q908.212 436.979 909.253 437.844Q910.293 438.709 911.307 439.605Q912.32 440.501 913.306 441.428Q914.291 442.355 915.248 443.311Q916.205 444.268 917.131 445.253Q918.058 446.239 918.955 447.252Q919.851 448.265 920.716 449.306Q921.58 450.346 922.413 451.413Q923.245 452.479 924.045 453.57Q924.844 454.662 925.61 455.777Q926.375 456.893 927.106 458.031Q927.837 459.169 928.533 460.33Q929.229 461.49 929.889 462.671Q930.549 463.852 931.172 465.052Q931.796 466.253 932.382 467.472Q932.968 468.691 933.517 469.928Q934.066 471.165 934.576 472.417Q935.087 473.67 935.559 474.938Q936.031 476.206 936.464 477.488Q936.896 478.769 937.29 480.064Q937.683 481.358 938.037 482.664Q938.39 483.97 938.703 485.286Q939.017 486.602 939.29 487.927Q939.562 489.252 939.794 490.585Q940.027 491.918 940.218 493.257Q940.409 494.596 940.559 495.941C942.878 517.353 937.172 541.64 923.431 558.554Q920.207 562.458 916.47 565.875C925.114 584.316 927.929 603.989 920.804 623.487C915.043 639.254 902.219 653.64 886.897 660.637C880.344 663.629 873.451 665.52 866.451 667.128C853.71 682.464 847.336 698.628 847.623 718.744C847.797 730.956 848.553 742.249 846.449 754.441C838.882 798.303 802.904 833.894 758.037 837.849Q753.908 838.242 749.761 838.143Q745.615 838.043 741.509 837.453Q708.565 856.711 675.987 876.581C663.093 875.706 649.828 876.413 636.889 876.483L581.142 876.354L497.88 876.286C483.177 876.307 468.381 876.072 453.695 876.616C452.075 876.676 450.761 876.869 449.258 877.536L448.609 877.425C443.514 876.339 436.865 877.243 431.563 877.306Q415.769 877.503 399.974 877.477L287.906 877.301C269.003 877.237 249.932 877.617 231.052 876.83L229.368 873.504C211.081 861.277 196.402 848.185 186.839 827.902C166.388 784.525 191.801 747.619 166.118 702.467C160.033 691.77 151.464 681.625 141.503 674.336C130.387 666.203 124.418 663.986 114.528 652.859Q113.133 651.294 111.798 649.679Q110.463 648.063 109.189 646.399Q107.914 644.735 106.703 643.024Q105.492 641.314 104.346 639.559Q103.199 637.804 102.119 636.008Q101.039 634.212 100.026 632.377Q99.0138 630.542 98.0705 628.67Q97.1272 626.798 96.2544 624.892Q95.3817 622.987 94.5806 621.05Q93.7795 619.113 93.0513 617.148Q92.323 615.182 91.6686 613.191Q91.0142 611.2 90.4345 609.186Q89.8549 607.172 89.3508 605.137Q88.8466 603.103 88.4188 601.051Q87.991 598.999 87.64 596.932Q87.289 594.866 87.0153 592.788C85.1075 578.123 85.9208 563.499 89.9076 549.243C99.8884 513.551 120.974 502.032 142.815 476.185C152.125 465.168 159.206 453.099 164.107 439.531C166.721 432.295 169.63 423.634 169.985 415.917C169.992 415.761 169.994 415.604 169.999 415.447C172.448 415.788 176.151 414.094 178.373 412.973C184.852 409.704 189.969 403.546 192.084 396.621C194.282 389.428 193.335 381.161 189.734 374.578C185.091 366.091 177.791 362.624 168.927 360.119C170.362 337.523 176.072 315.075 189.747 296.596C211.189 267.622 242.745 251.441 277.912 246.224C279.11 246.018 279.517 246.153 280.419 245.286L280.449 243.754C281.037 242.912 281.608 242.084 282.154 241.214L290.371 240.489L290.499 224.521C312.262 220.601 333.513 223.178 352.028 236.066Q352.857 236.643 353.674 237.236C359.011 233.582 364.498 230.884 370.397 228.253Z"/>
	<path fill="#010101" d="M356.057 753.103C355.861 743.867 357.091 734.086 357.859 724.874C358.261 720.059 358.242 714.594 359.274 709.899C359.511 708.819 360.011 707.928 360.973 707.351C362.811 711.532 358.888 745.123 358.281 752.188C357.412 753.008 357.261 752.953 356.057 753.103Z"/>
	<path fill="#010101" d="M203.004 624.174C196.658 627.098 189.111 628.785 182.129 628.872C166.258 629.07 151.743 622.37 140.547 611.288Q139.529 610.275 138.563 609.213Q137.596 608.151 136.683 607.042Q135.771 605.933 134.914 604.781Q134.057 603.629 133.258 602.435Q132.459 601.242 131.72 600.011Q130.981 598.779 130.304 597.513Q129.626 596.247 129.013 594.948Q128.399 593.65 127.85 592.323Q127.301 590.996 126.818 589.644Q126.336 588.291 125.92 586.917Q125.505 585.542 125.158 584.148Q124.811 582.755 124.534 581.346Q124.256 579.937 124.049 578.516Q123.841 577.095 123.704 575.666Q123.567 574.236 123.501 572.802Q123.434 571.367 123.439 569.931C123.463 553.981 130.409 537.69 141.833 526.543C153.406 515.252 168.105 510.358 184.098 510.565C183.367 512.09 182.877 512.316 181.337 512.971C165.609 513.559 152.327 518.479 141.454 530.18Q140.471 531.247 139.54 532.362Q138.61 533.476 137.735 534.634Q136.86 535.792 136.042 536.991Q135.225 538.191 134.467 539.428Q133.709 540.666 133.012 541.939Q132.315 543.212 131.681 544.518Q131.047 545.824 130.477 547.159Q129.907 548.494 129.403 549.855Q128.899 551.216 128.462 552.6Q128.025 553.984 127.656 555.388Q127.287 556.792 126.987 558.212Q126.686 559.632 126.456 561.065Q126.225 562.498 126.064 563.94Q125.903 565.383 125.813 566.831Q125.723 568.28 125.703 569.731Q125.684 571.182 125.735 572.633Q125.807 574.029 125.947 575.421Q126.088 576.812 126.296 578.195Q126.505 579.578 126.781 580.948Q127.057 582.319 127.4 583.675Q127.743 585.031 128.152 586.368Q128.561 587.705 129.035 589.021Q129.509 590.336 130.047 591.627Q130.585 592.917 131.186 594.18Q131.787 595.443 132.449 596.675Q133.111 597.906 133.833 599.104Q134.554 600.302 135.334 601.463Q136.114 602.624 136.949 603.745Q137.785 604.866 138.674 605.945Q139.564 607.024 140.505 608.058Q141.447 609.092 142.438 610.079Q143.429 611.065 144.467 612.002Q145.408 612.854 146.387 613.663Q147.366 614.472 148.38 615.236Q149.394 616.001 150.442 616.718Q151.489 617.436 152.568 618.106Q153.647 618.776 154.754 619.397Q155.862 620.018 156.997 620.588Q158.131 621.158 159.29 621.677Q160.449 622.196 161.631 622.662Q162.812 623.128 164.013 623.54Q165.214 623.953 166.432 624.311Q167.65 624.669 168.884 624.972Q170.117 625.275 171.362 625.522Q172.608 625.769 173.863 625.96Q175.119 626.151 176.382 626.285Q177.644 626.419 178.912 626.496Q180.179 626.574 181.449 626.594C188.967 627.181 195.84 623.739 203.004 624.174Z"/>
	<path fill="#DA665B" d="M780.913 707.585C784.65 707.363 788.103 707.684 791.548 709.257Q791.995 709.463 792.43 709.691Q792.866 709.919 793.289 710.169Q793.713 710.42 794.123 710.691Q794.532 710.963 794.928 711.255Q795.323 711.547 795.703 711.859Q796.083 712.172 796.447 712.503Q796.811 712.834 797.157 713.183Q797.503 713.533 797.83 713.899Q798.158 714.266 798.467 714.649Q798.775 715.032 799.064 715.43Q799.352 715.828 799.62 716.241Q799.888 716.653 800.134 717.079Q800.38 717.505 800.604 717.943Q800.828 718.38 801.03 718.829Q801.231 719.277 801.409 719.736Q801.588 720.194 801.742 720.661Q801.897 721.121 802.028 721.588Q802.159 722.054 802.266 722.527Q802.373 723 802.455 723.478Q802.538 723.956 802.596 724.438Q802.654 724.919 802.687 725.403Q802.72 725.887 802.729 726.371Q802.737 726.856 802.721 727.341Q802.704 727.826 802.663 728.309Q802.622 728.792 802.556 729.272Q802.49 729.753 802.4 730.229Q802.31 730.706 802.195 731.177Q802.08 731.648 801.942 732.113Q801.803 732.577 801.641 733.034Q801.478 733.491 801.293 733.939Q801.108 734.387 800.899 734.825Q800.691 735.263 800.461 735.69C797.434 741.203 792.636 743.627 786.859 745.292C782.826 745.625 779.214 745.474 775.486 743.655C770.752 741.344 767.473 737.007 765.991 732.009C764.512 727.019 764.744 721.592 767.376 717.027C770.444 711.702 775.197 709.161 780.913 707.585Z"/>
	<path fill="#4B71BE" d="M732.61 741.303C741.093 745.42 773.721 775.933 781.9 784.232L766.467 801.856C758.775 797.112 750.5 788.353 743.612 782.228C734.716 774.319 724.889 766.632 716.771 757.947C722.34 752.698 727.083 746.62 732.61 741.303Z"/>
	<defs>
		<linearGradient id="gradient_0" gradientUnits="userSpaceOnUse" x1="293.75339" y1="346.70151" x2="411.46313" y2="232.98747">
			<stop offset="0" stop-color="#D16C64"/>
			<stop offset="1" stop-color="#FF8577"/>
		</linearGradient>
	</defs>
	<path fill="url(#gradient_0)" d="M280.449 243.754C281.037 242.912 281.608 242.084 282.154 241.214C283.208 242.415 283.616 242.545 285.217 242.611C286.82 242.676 288.498 242.51 290.1 242.428C289.811 271.207 290.072 300.007 290.171 328.788C310.706 327.937 331.32 328.793 351.854 329.134C362.979 329.318 374.175 328.925 385.305 328.832C397.583 328.73 409.924 328.892 422.193 328.484L422.17 268.972C422.145 262.964 421.287 249.266 422.209 244.262C422.367 243.404 422.715 243.069 423.258 242.393L426.997 248.072L427.017 335.508Q353.7 334.298 280.38 335.281L280.238 272.269C280.257 267.355 280.954 250.496 280.343 247.409C280.274 247.057 279.937 246.818 279.734 246.523L277.912 246.224C279.11 246.018 279.517 246.153 280.419 245.286L280.449 243.754Z"/>
	<path fill="#DA665B" d="M814.951 439.625C821.069 439.132 826.409 439.662 831.889 442.687Q832.491 443.025 833.074 443.392Q833.658 443.76 834.222 444.158Q834.786 444.555 835.329 444.981Q835.872 445.406 836.393 445.859Q836.913 446.313 837.41 446.792Q837.906 447.271 838.377 447.775Q838.849 448.279 839.293 448.806Q839.738 449.333 840.155 449.883Q840.573 450.433 840.961 451.003Q841.35 451.573 841.708 452.162Q842.067 452.752 842.395 453.359Q842.723 453.966 843.02 454.589Q843.316 455.212 843.58 455.849Q843.844 456.486 844.076 457.136Q844.307 457.787 844.504 458.448Q844.702 459.109 844.865 459.779C846.675 466.916 845.813 475.02 841.937 481.339C837.716 488.223 831.457 491.458 823.912 493.372C817.373 494.201 811.63 493.885 805.697 490.58C799.591 487.18 794.867 481.441 792.999 474.674C791.031 467.54 792.286 459.262 795.965 452.857C800.293 445.323 806.841 441.753 814.951 439.625Z"/>
	<path fill="#FEFEFE" d="M181.449 626.594Q180.179 626.574 178.912 626.496Q177.644 626.419 176.382 626.285Q175.119 626.151 173.863 625.96Q172.608 625.769 171.362 625.522Q170.117 625.275 168.884 624.972Q167.65 624.669 166.432 624.311Q165.214 623.953 164.013 623.54Q162.812 623.128 161.631 622.662Q160.449 622.196 159.29 621.677Q158.131 621.158 156.997 620.588Q155.862 620.018 154.754 619.397Q153.647 618.776 152.568 618.106Q151.489 617.436 150.442 616.718Q149.394 616.001 148.38 615.236Q147.366 614.472 146.387 613.663Q145.408 612.854 144.467 612.002Q143.429 611.065 142.438 610.079Q141.447 609.092 140.505 608.058Q139.564 607.024 138.674 605.945Q137.785 604.866 136.949 603.745Q136.114 602.624 135.334 601.463Q134.554 600.302 133.833 599.104Q133.111 597.906 132.449 596.675Q131.787 595.443 131.186 594.18Q130.585 592.917 130.047 591.627Q129.509 590.336 129.035 589.021Q128.561 587.705 128.152 586.368Q127.743 585.031 127.4 583.675Q127.057 582.319 126.781 580.948Q126.505 579.578 126.296 578.195Q126.088 576.812 125.947 575.421Q125.807 574.029 125.735 572.633Q125.684 571.182 125.703 569.731Q125.723 568.28 125.813 566.831Q125.903 565.383 126.064 563.94Q126.225 562.498 126.456 561.065Q126.686 559.632 126.987 558.212Q127.287 556.792 127.656 555.388Q128.025 553.984 128.462 552.6Q128.899 551.216 129.403 549.855Q129.907 548.494 130.477 547.159Q131.047 545.824 131.681 544.518Q132.315 543.212 133.012 541.939Q133.709 540.666 134.467 539.428Q135.225 538.191 136.042 536.991Q136.86 535.792 137.735 534.634Q138.61 533.476 139.54 532.362Q140.471 531.247 141.454 530.18C152.327 518.479 165.609 513.559 181.337 512.971Q181.004 569.784 181.449 626.594Z"/>
	<path fill="#4B71BE" d="M184.098 510.565C199.292 511.752 212.069 517.843 221.977 529.552Q222.967 530.718 223.899 531.932Q224.83 533.146 225.7 534.405Q226.57 535.663 227.377 536.964Q228.184 538.264 228.925 539.602Q229.666 540.941 230.341 542.314Q231.015 543.688 231.62 545.093Q232.225 546.499 232.76 547.932Q233.295 549.366 233.759 550.824Q234.222 552.282 234.612 553.762Q235.003 555.241 235.32 556.738Q235.637 558.235 235.879 559.746Q236.121 561.256 236.288 562.777Q236.455 564.298 236.547 565.826Q236.639 567.353 236.654 568.883Q236.67 570.413 236.61 571.942Q236.551 573.471 236.415 574.995C234.902 592.276 226.989 606.817 213.697 617.844C210.512 620.486 206.889 622.722 203.004 624.174C195.84 623.739 188.967 627.181 181.449 626.594Q181.004 569.782 181.337 512.971C182.877 512.316 183.367 512.09 184.098 510.565Z"/>
	<path fill="#FEFEFE" d="M210.564 599.408C211.162 599.768 211.531 600.193 212.009 600.696C210.991 605.849 197.552 613.847 194.956 621.088L192.54 617.541C199.024 612.67 205.034 605.385 210.564 599.408Z"/>
	<path fill="#FEFEFE" d="M193.806 523.686C194.66 524.118 194.991 524.513 195.621 525.213C196.358 527.312 195.987 529.583 195.855 531.769C197.038 533.522 198.265 535.686 199.812 537.124C201.658 538.84 205.396 539.586 206.61 541.66C207.09 542.48 207.023 542.144 206.839 542.973C205.79 542.989 205.249 542.894 204.321 543.43C206.108 546.986 209.162 550.367 211.506 553.597L225.415 573.058C219.619 579.041 213.198 584.632 207.14 590.367C203.377 593.866 199.688 597.507 195.506 600.509C195.482 603.372 195.806 606.175 195.636 609.049C194.755 609.161 194.588 608.887 193.833 608.473C193.242 607.71 192.981 607.237 192.868 606.253C192.158 600.081 192.722 593.411 192.724 587.18C192.729 567.656 194.003 547.541 191.948 528.135C191.725 526.029 192.55 525.233 193.806 523.686Z"/>
	<path fill="#4B71BE" d="M195.966 537.366C200.35 540.744 209.318 554.913 213.179 560.296L195.57 560.13C195.604 552.582 195.346 544.885 195.966 537.366Z"/>
	<path fill="#4B71BE" d="M195.544 562.635Q205.149 562.829 214.755 562.69Q218.455 567.679 221.909 572.841C217.907 576.932 213.615 580.806 209.469 584.755C205.012 588.92 200.493 593.549 195.491 597.039L195.544 562.635Z"/>
	<path fill="#4B71BE" d="M718.473 281.14Q743.257 280.893 768.042 280.933L768.04 300.447L784.244 300.508Q784.389 322.495 784.194 344.482L767.979 344.508L767.983 365.324C763.373 366.127 757.889 365.635 753.176 365.668L718.52 365.702L718.488 345.488L703.046 345.489L702.962 300.375C708.096 300.562 713.255 300.491 718.392 300.522L718.473 281.14Z"/>
	<path fill="#4B71BE" d="M303.585 739.341C303.959 743.89 303.978 748.45 304.042 753.011Q321.459 753.084 338.876 752.976C344.367 752.957 350.63 752.378 356.057 753.103C357.261 752.953 357.412 753.008 358.281 752.188C360.65 753.915 369.577 752.717 373.042 752.717C399.003 752.718 412.974 768.996 418.662 792.914C417.491 793.727 416.719 793.861 416.408 795.315C421.113 806.024 424.956 817.036 429.154 827.946L448.609 877.425C443.514 876.339 436.865 877.243 431.563 877.306Q415.769 877.503 399.974 877.477L287.906 877.301C269.003 877.237 249.932 877.617 231.052 876.83L229.368 873.504C230.002 854.955 229.322 836.169 229.28 817.599C229.256 807.361 228.348 796.3 230.799 786.303Q231.146 784.854 231.589 783.433Q232.033 782.011 232.571 780.622Q233.11 779.234 233.74 777.884Q234.371 776.535 235.091 775.232Q235.812 773.928 236.618 772.676Q237.425 771.424 238.314 770.229Q239.203 769.034 240.171 767.902Q241.138 766.769 242.18 765.705C253.756 754.093 264.966 752.876 280.467 752.908L301.072 752.981L302.741 752.854C304.55 750.254 303.474 742.732 303.585 739.341Z"/>
	<path fill="#010101" d="M370.397 228.253C372.104 203.314 379.237 183.591 398.592 166.864C414.532 153.088 437.041 145.99 457.987 147.688C480.635 149.523 499.292 160.557 515.274 176.036C528.733 160.226 546.585 149.867 567.485 148.149Q569.423 147.991 571.367 147.928Q573.311 147.866 575.255 147.899Q577.2 147.932 579.14 148.06Q581.081 148.189 583.013 148.412Q584.945 148.636 586.863 148.954Q588.782 149.273 590.682 149.685Q592.583 150.097 594.461 150.602Q596.339 151.107 598.19 151.704Q600.041 152.301 601.86 152.988Q603.68 153.675 605.463 154.451Q607.247 155.226 608.99 156.089Q610.733 156.951 612.432 157.898Q614.13 158.845 615.78 159.874Q617.431 160.903 619.028 162.012Q620.626 163.121 622.167 164.307Q623.708 165.493 625.189 166.754Q626.66 168.024 628.068 169.363Q629.477 170.702 630.819 172.108Q632.161 173.514 633.433 174.982Q634.706 176.451 635.906 177.98Q637.106 179.508 638.231 181.093Q639.356 182.677 640.404 184.314Q641.451 185.951 642.418 187.637Q643.385 189.323 644.27 191.053Q645.155 192.783 645.955 194.554Q646.755 196.325 647.469 198.133Q648.182 199.941 648.808 201.78Q649.434 203.62 649.97 205.488Q650.506 207.356 650.952 209.248Q651.397 211.139 651.751 213.05Q652.105 214.961 652.366 216.887Q652.627 218.813 652.795 220.749C653.122 224.822 653.04 228.936 652.954 233.018C671.001 230.868 681.581 223.066 697.683 216.893C729.778 204.588 768.066 211.711 794.794 232.885Q795.767 233.67 796.721 234.478Q797.674 235.286 798.608 236.117Q799.542 236.948 800.455 237.802Q801.368 238.656 802.26 239.532Q803.151 240.408 804.022 241.305Q804.892 242.202 805.74 243.121Q806.588 244.039 807.413 244.978Q808.239 245.917 809.041 246.875Q809.843 247.834 810.622 248.812Q811.4 249.79 812.154 250.787Q812.909 251.783 813.639 252.798Q814.369 253.813 815.073 254.845Q815.778 255.878 816.458 256.927Q817.137 257.976 817.79 259.042Q818.444 260.107 819.071 261.189Q819.699 262.27 820.299 263.366Q820.9 264.462 821.474 265.573Q822.047 266.683 822.594 267.808Q823.14 268.932 823.659 270.069Q824.178 271.206 824.669 272.356Q825.16 273.506 825.622 274.667Q826.085 275.828 826.519 277Q826.953 278.172 827.359 279.355Q827.764 280.537 828.141 281.729Q828.517 282.921 828.864 284.122Q829.211 285.323 829.529 286.532Q829.847 287.741 830.135 288.957Q830.423 290.174 830.681 291.397Q830.939 292.62 831.168 293.849Q831.396 295.078 831.594 296.312Q831.792 297.546 831.96 298.785Q832.128 300.024 832.266 301.266C835.549 331.677 824.802 356.621 840.741 386.07C845.687 395.208 852.105 403.176 860.199 409.714C870.488 418.025 882.04 421.476 893.506 427.388Q894.707 428.011 895.888 428.671Q897.069 429.331 898.229 430.027Q899.389 430.723 900.527 431.454Q901.666 432.185 902.781 432.95Q903.897 433.716 904.988 434.515Q906.079 435.314 907.146 436.147Q908.212 436.979 909.253 437.844Q910.293 438.709 911.307 439.605Q912.32 440.501 913.306 441.428Q914.291 442.355 915.248 443.311Q916.205 444.268 917.131 445.253Q918.058 446.239 918.955 447.252Q919.851 448.265 920.716 449.306Q921.58 450.346 922.413 451.413Q923.245 452.479 924.045 453.57Q924.844 454.662 925.61 455.777Q926.375 456.893 927.106 458.031Q927.837 459.169 928.533 460.33Q929.229 461.49 929.889 462.671Q930.549 463.852 931.172 465.052Q931.796 466.253 932.382 467.472Q932.968 468.691 933.517 469.928Q934.066 471.165 934.576 472.417Q935.087 473.67 935.559 474.938Q936.031 476.206 936.464 477.488Q936.896 478.769 937.29 480.064Q937.683 481.358 938.037 482.664Q938.39 483.97 938.703 485.286Q939.017 486.602 939.29 487.927Q939.562 489.252 939.794 490.585Q940.027 491.918 940.218 493.257Q940.409 494.596 940.559 495.941C942.878 517.353 937.172 541.64 923.431 558.554Q920.207 562.458 916.47 565.875C925.114 584.316 927.929 603.989 920.804 623.487C915.043 639.254 902.219 653.64 886.897 660.637C880.344 663.629 873.451 665.52 866.451 667.128C853.71 682.464 847.336 698.628 847.623 718.744C847.797 730.956 848.553 742.249 846.449 754.441C838.882 798.303 802.904 833.894 758.037 837.849Q753.908 838.242 749.761 838.143Q745.615 838.043 741.509 837.453Q708.565 856.711 675.987 876.581C663.093 875.706 649.828 876.413 636.889 876.483L581.142 876.354L497.88 876.286C483.177 876.307 468.381 876.072 453.695 876.616C452.075 876.676 450.761 876.869 449.258 877.536L448.609 877.425L429.154 827.946C424.956 817.036 421.113 806.024 416.408 795.315C416.719 793.861 417.491 793.727 418.662 792.914Q433.928 833.741 449.991 874.261Q540.472 873.613 630.953 874.278C627.057 868.355 624.043 861.7 620.504 855.535C659.114 832.611 698.302 810.751 737.008 788.018C742.494 797.258 755.847 818.138 758.691 827.24C757.943 828.75 747.648 833.855 745.308 835.573C745.129 835.705 744.954 835.841 744.777 835.974Q750.017 836.207 755.252 835.882C774.227 834.688 791.774 827.736 806.835 816.226Q808.733 814.774 810.557 813.231Q812.381 811.687 814.128 810.057Q815.875 808.426 817.539 806.711Q819.204 804.997 820.783 803.204Q822.362 801.41 823.851 799.541Q825.34 797.672 826.736 795.733Q828.132 793.793 829.431 791.788Q830.73 789.783 831.93 787.716C840.604 773.02 844.936 757.22 845.821 740.204C846.214 732.65 845.423 725.055 845.401 717.494C845.348 699.233 851.207 680.96 863.348 667.124C858.239 667.384 853.233 667.348 848.155 666.66C830.398 664.257 814.536 655.768 803.731 641.384C793.017 627.122 787.935 609.501 790.6 591.744C793.432 572.878 803.014 556.634 818.43 545.352C832.727 534.889 851.479 530.849 868.913 533.664C888.584 536.841 903.952 548.027 915.437 563.987C918.145 561.276 920.784 558.473 923.088 555.405C936.165 537.99 941.12 514.136 937.913 492.785Q937.725 491.516 937.5 490.254Q937.274 488.991 937.011 487.736Q936.747 486.481 936.446 485.234Q936.145 483.988 935.807 482.751Q935.469 481.514 935.093 480.287Q934.718 479.061 934.306 477.846Q933.894 476.632 933.446 475.43Q932.998 474.229 932.514 473.041Q932.03 471.853 931.51 470.681Q930.991 469.508 930.437 468.352Q929.882 467.195 929.293 466.056Q928.704 464.917 928.082 463.796Q927.459 462.674 926.803 461.573Q926.147 460.471 925.458 459.389Q924.769 458.307 924.047 457.247Q923.326 456.186 922.574 455.148Q921.821 454.109 921.038 453.094Q920.254 452.078 919.441 451.087Q918.627 450.096 917.784 449.129Q916.941 448.163 916.07 447.222Q915.198 446.281 914.299 445.367Q913.399 444.453 912.473 443.566Q911.546 442.679 910.594 441.82Q909.641 440.962 908.663 440.132Q907.685 439.302 906.682 438.503Q905.68 437.703 904.654 436.933Q903.628 436.164 902.579 435.425Q901.531 434.687 900.46 433.981Q899.39 433.274 898.299 432.6Q897.208 431.926 896.097 431.285Q894.986 430.644 893.857 430.037Q892.727 429.429 891.58 428.856C880.554 423.21 870.594 420.352 860.325 412.623C851.791 406.2 844.973 397.994 839.715 388.727C821.422 356.484 834.252 330.905 829.609 297.834Q829.429 296.63 829.22 295.43Q829.012 294.231 828.774 293.036Q828.536 291.842 828.268 290.654Q828.001 289.466 827.706 288.285Q827.41 287.104 827.085 285.931Q826.76 284.757 826.407 283.592Q826.054 282.427 825.673 281.27Q825.292 280.114 824.882 278.967Q824.473 277.82 824.036 276.684Q823.598 275.548 823.134 274.422Q822.669 273.297 822.177 272.183Q821.685 271.069 821.166 269.968Q820.647 268.866 820.101 267.778Q819.555 266.689 818.983 265.615Q818.411 264.54 817.813 263.479Q817.215 262.418 816.592 261.373Q815.968 260.327 815.319 259.297Q814.67 258.267 813.996 257.252Q813.322 256.238 812.624 255.241Q811.925 254.244 811.203 253.263Q810.48 252.283 809.734 251.321Q808.988 250.359 808.219 249.415Q807.449 248.471 806.657 247.547Q805.865 246.622 805.051 245.717Q804.236 244.812 803.4 243.927Q802.564 243.042 801.707 242.177Q800.849 241.313 799.971 240.469Q799.092 239.626 798.194 238.805Q797.295 237.983 796.377 237.183Q795.459 236.384 794.521 235.607Q793.583 234.83 792.627 234.076Q791.671 233.322 790.697 232.592C764.638 213.269 728.817 207.333 698.332 219.073C680.708 225.861 672.994 232.498 652.648 235.497C651.115 245.703 648.46 255.585 643.308 264.598C633.457 281.832 615.498 295.474 596.363 300.598Q595.41 300.847 594.451 301.072Q593.492 301.297 592.527 301.499Q591.563 301.701 590.594 301.879Q589.625 302.057 588.652 302.211Q587.679 302.366 586.703 302.496Q585.727 302.626 584.747 302.733Q583.768 302.839 582.786 302.922Q581.804 303.004 580.821 303.062Q579.838 303.121 578.853 303.155Q577.869 303.189 576.884 303.199Q575.898 303.209 574.913 303.195Q573.928 303.181 572.944 303.143Q571.96 303.105 570.977 303.042Q569.993 302.98 569.012 302.894Q568.031 302.807 567.052 302.697Q566.073 302.587 565.097 302.452Q564.121 302.318 563.149 302.16Q562.176 302.002 561.208 301.82Q560.24 301.638 559.277 301.432Q558.313 301.226 557.355 300.997Q556.397 300.768 555.445 300.515Q554.493 300.263 553.547 299.987Q552.601 299.711 551.663 299.412Q550.724 299.113 549.793 298.791Q548.862 298.469 547.939 298.125Q547.016 297.78 546.102 297.413Q545.188 297.046 544.283 296.657Q543.378 296.267 542.483 295.856Q541.588 295.444 540.703 295.011Q539.818 294.578 538.944 294.123Q538.07 293.668 537.208 293.192Q536.345 292.716 535.495 292.219Q533.867 291.241 532.289 290.183Q530.712 289.125 529.188 287.99Q527.665 286.856 526.2 285.647Q524.734 284.438 523.33 283.159Q521.927 281.879 520.588 280.532Q519.249 279.184 517.979 277.772Q516.709 276.36 515.51 274.886Q514.311 273.413 513.186 271.882Q512.062 270.351 511.014 268.767Q509.967 267.182 508.999 265.548Q508.032 263.913 507.146 262.233Q506.26 260.552 505.459 258.83Q504.658 257.108 503.943 255.348Q503.227 253.589 502.6 251.796Q501.973 250.003 501.435 248.181Q500.898 246.359 500.451 244.513C494.105 218.937 500.703 199.199 513.879 177.515C497.623 162.714 481.1 151.744 458.473 150.076C436.859 148.482 416 154.808 399.558 169.121C381.668 184.694 374.552 204.02 372.883 227.176C387.423 223.157 400.723 223.316 415.625 223.528C415.985 229.454 415.774 235.519 415.799 241.462C418.329 241.415 421.073 241.037 423.258 242.393C422.715 243.069 422.367 243.404 422.209 244.262C421.287 249.266 422.145 262.964 422.17 268.972L422.193 328.484C409.924 328.892 397.583 328.73 385.305 328.832C374.175 328.925 362.979 329.318 351.854 329.134C331.32 328.793 310.706 327.937 290.171 328.788C290.072 300.007 289.811 271.207 290.1 242.428C288.498 242.51 286.82 242.676 285.217 242.611C283.616 242.545 283.208 242.415 282.154 241.214L290.371 240.489L290.499 224.521C312.262 220.601 333.513 223.178 352.028 236.066Q352.857 236.643 353.674 237.236C359.011 233.582 364.498 230.884 370.397 228.253Z"/>
	<path fill="#DA665B" d="M415.475 315.442C415.303 301.144 415.687 286.832 415.731 272.533C415.755 264.706 415.069 256.228 415.749 248.462C415.896 246.793 416.31 245.465 416.985 243.943L417.902 243.17C418.888 243.615 418.915 243.679 419.313 244.651C419.79 245.815 419.942 247.181 420.01 248.427C420.256 252.907 419.943 257.563 419.926 262.063L419.935 289.313C419.941 297.321 420.929 317.638 419.526 324.544C419.443 322.905 419.325 321.445 418.896 319.857C418.57 321.009 418.982 322.771 419.086 323.979C418.677 322.128 418.313 320.241 417.813 318.413C417.312 316.582 417.157 316.399 415.475 315.442Z"/>
	<path fill="#DADADA" d="M299.687 315.278C317.916 314.141 329.811 318.401 345.845 326.504L338.504 326.141L292.487 326.041C292.318 322.508 292.394 318.956 292.405 315.419L299.687 315.278Z"/>
	<path fill="#DADADA" d="M415.475 315.442C417.157 316.399 417.312 316.582 417.813 318.413C418.313 320.241 418.677 322.128 419.086 323.979C418.982 322.771 418.57 321.009 418.896 319.857C419.325 321.445 419.443 322.905 419.526 324.544L419.267 325.47C417.241 326.666 369.481 326.056 362.693 326.284C381.224 316.261 395.152 315.855 415.475 315.442Z"/>
	<path fill="#FEFEFE" d="M735.787 791.454C738.643 792.89 753.336 820.832 756.111 826.089C751.079 829.624 745.35 832.483 740.03 835.601L708.934 853.998C702.296 857.91 681.251 871.847 675.482 873.463C669.776 875.062 652.197 874.102 645.125 874.115L634.113 874.147C630.124 868.215 626.811 862.711 623.925 856.13Q679.587 823.327 735.787 791.454Z"/>
	<path fill="#FEFEFE" d="M393.075 225.704C399.796 225.04 406.824 225.412 413.571 225.504L412.982 313.365C397.705 313.22 384.608 313.549 370.369 319.719C366.581 321.616 359.225 326.697 355.1 326.474L355.091 325.378L354.729 324.863C354.895 324.658 354.943 246.692 354.961 239.189C366.013 231.04 379.517 226.897 393.075 225.704Z"/>
	<path fill="#FEFEFE" d="M302.429 225.199C319.863 222.746 338.418 229.432 352.527 239.3L352.454 326.747C349.92 325.85 347.615 324.546 345.253 323.279C325.423 312.36 314.526 312.456 292.527 313.057C292.515 284.306 291.934 255.43 292.742 226.697C295.966 225.997 299.15 225.557 302.429 225.199Z"/>
	<path fill="#FEFEFE" d="M852.412 535.197C868.468 533.914 885.109 538.378 897.844 548.386C911.802 559.355 920.119 574.478 922.107 592.086C924.077 609.533 919.695 626.768 908.626 640.53C896.747 655.298 880.737 662.82 862.121 664.896C845.519 665.878 828.878 661.472 815.896 650.776C802.96 640.118 794.144 623.919 792.545 607.233Q792.383 605.607 792.302 603.975Q792.22 602.343 792.22 600.709Q792.22 599.075 792.301 597.443Q792.382 595.811 792.545 594.185Q792.707 592.56 792.949 590.944Q793.192 589.328 793.514 587.726Q793.837 586.124 794.239 584.54Q794.64 582.957 795.12 581.395Q795.6 579.833 796.157 578.297Q796.714 576.761 797.346 575.254Q797.979 573.747 798.685 572.274Q799.392 570.801 800.171 569.364Q800.949 567.928 801.799 566.532Q802.648 565.136 803.565 563.784Q804.483 562.432 805.466 561.127Q806.45 559.822 807.497 558.568C818.903 544.836 834.763 536.91 852.412 535.197Z"/>
	<path fill="#010101" d="M845.654 624.014C853.123 625.6 861.942 624.894 869.558 624.846C869.355 631.759 869.49 638.712 869.479 645.63Q857.419 645.388 845.362 645.012C845.245 638.148 844.771 630.816 845.654 624.014Z"/>
	<path fill="#4B71BE" d="M845.654 624.014C845.552 623.811 845.454 623.606 845.349 623.405C843.809 620.429 840.881 617.492 838.8 614.836C830.905 604.761 824.809 593.921 828.613 580.751C830.845 573.023 836.291 566.051 843.365 562.185Q844.016 561.828 844.684 561.504Q845.351 561.18 846.035 560.891Q846.718 560.601 847.415 560.346Q848.113 560.092 848.822 559.873Q849.531 559.653 850.25 559.47Q850.969 559.287 851.697 559.141Q852.425 558.994 853.159 558.885Q853.893 558.775 854.632 558.703Q855.37 558.63 856.112 558.595Q856.853 558.56 857.595 558.563Q858.338 558.565 859.079 558.605Q859.82 558.645 860.558 558.723Q861.296 558.8 862.03 558.915Q862.763 559.029 863.49 559.181Q864.216 559.332 864.934 559.52Q865.652 559.708 866.36 559.932C874.244 562.343 880.807 567.545 884.554 574.941C888.382 582.498 888.559 591.229 885.784 599.16C882.335 609.021 874.662 615.989 869.558 624.846C861.942 624.894 853.123 625.6 845.654 624.014Z"/>
	<path fill="#FEFEFE" d="M569.615 150.196Q571.392 150.103 573.171 150.093Q574.949 150.083 576.727 150.154Q578.505 150.226 580.277 150.38Q582.049 150.533 583.813 150.769Q585.576 151.004 587.327 151.321Q589.077 151.637 590.811 152.035Q592.545 152.432 594.259 152.908Q595.973 153.385 597.663 153.941Q599.353 154.496 601.016 155.129Q602.678 155.762 604.31 156.471Q605.942 157.18 607.539 157.963Q609.136 158.747 610.695 159.603Q612.255 160.46 613.773 161.387Q615.291 162.315 616.764 163.312Q618.238 164.308 619.664 165.372Q621.09 166.436 622.465 167.564Q623.95 168.792 625.373 170.092Q626.796 171.392 628.153 172.761Q629.51 174.129 630.799 175.562Q632.087 176.996 633.303 178.491Q634.519 179.986 635.661 181.539Q636.802 183.092 637.865 184.7Q638.929 186.307 639.912 187.965Q640.895 189.622 641.795 191.326Q642.695 193.03 643.511 194.777Q644.326 196.523 645.055 198.307Q645.783 200.092 646.423 201.91Q647.063 203.728 647.613 205.575Q648.162 207.422 648.62 209.294Q649.078 211.166 649.444 213.059Q649.809 214.951 650.081 216.859Q650.353 218.767 650.531 220.686C652.278 239.729 646.511 259.413 634.086 274.055C621.005 289.47 603.019 298.984 582.877 300.643C582.431 300.695 581.984 300.738 581.536 300.772C561.819 302.268 541.498 296.022 526.442 283.099Q525.055 281.895 523.728 280.625Q522.401 279.355 521.138 278.022Q519.874 276.689 518.677 275.296Q517.479 273.903 516.351 272.454Q515.222 271.004 514.166 269.502Q513.109 267.999 512.126 266.448Q511.144 264.896 510.238 263.298Q509.332 261.7 508.505 260.06Q507.677 258.42 506.93 256.742Q506.184 255.064 505.519 253.352Q504.855 251.639 504.274 249.897Q503.694 248.154 503.199 246.385Q502.704 244.616 502.295 242.826Q501.886 241.035 501.565 239.226Q501.244 237.418 501.01 235.596Q500.777 233.774 500.633 231.943Q500.557 230.969 500.505 229.993Q500.453 229.017 500.426 228.04Q500.398 227.063 500.395 226.086Q500.392 225.108 500.412 224.131Q500.433 223.154 500.479 222.178Q500.524 221.202 500.593 220.227Q500.662 219.252 500.756 218.279Q500.849 217.306 500.967 216.336Q501.085 215.366 501.226 214.399Q501.368 213.432 501.534 212.469Q501.699 211.506 501.889 210.547Q502.078 209.588 502.292 208.634Q502.505 207.681 502.742 206.732Q502.978 205.784 503.239 204.842Q503.499 203.9 503.783 202.965Q504.066 202.03 504.373 201.102Q504.679 200.174 505.009 199.254Q505.339 198.334 505.691 197.422Q506.043 196.511 506.418 195.608Q506.793 194.705 507.19 193.812Q507.587 192.919 508.007 192.037Q508.426 191.154 508.867 190.282Q509.308 189.409 509.77 188.548Q510.232 187.687 510.716 186.838Q511.2 185.989 511.704 185.152Q512.209 184.315 512.734 183.491Q513.259 182.667 513.805 181.856Q514.35 181.045 514.916 180.248Q515.481 179.451 516.066 178.668Q516.651 177.885 517.256 177.117Q517.86 176.349 518.483 175.596Q519.106 174.843 519.748 174.106C532.095 160.081 551.123 151.443 569.615 150.196Z"/>
	<path fill="#010101" d="M569.649 189.65C573.299 189.196 577.231 189.738 580.79 190.6C588.939 192.573 595.793 197.329 600.151 204.549C605.242 212.985 606.586 222.408 604.224 231.946C601.665 242.28 595.642 250.81 586.485 256.279Q586.529 268.369 586.174 280.453L577.186 280.686Q567.906 280.703 558.627 280.543C558.324 272.413 558.523 264.202 558.491 256.063Q557.7 255.571 556.939 255.035C548.48 249.048 542.419 239.158 540.712 228.963C539.132 219.524 541.725 210.024 547.355 202.338C553 194.633 560.364 191.034 569.649 189.65Z"/>
	<path fill="#FEFEFE" d="M568.964 191.64C575.604 191.08 582.063 192.262 587.913 195.503C595.043 199.452 600.155 206.691 602.271 214.503C604.739 223.612 602.698 234.166 597.939 242.21C593.366 249.94 586.782 254.792 578.082 257.002C571.058 257.864 563.77 256.833 557.8 252.832C550.058 247.645 544.751 238.549 543.023 229.492Q542.877 228.699 542.77 227.899Q542.663 227.099 542.595 226.295Q542.528 225.491 542.5 224.684Q542.473 223.878 542.485 223.071Q542.498 222.264 542.55 221.459Q542.602 220.654 542.694 219.852Q542.786 219.051 542.918 218.254Q543.05 217.458 543.221 216.67Q543.391 215.881 543.601 215.102Q543.811 214.323 544.059 213.555Q544.306 212.787 544.592 212.032Q544.878 211.277 545.2 210.538Q545.523 209.798 545.882 209.075Q546.24 208.353 546.634 207.648Q547.028 206.944 547.457 206.261Q547.885 205.577 548.347 204.915C553.457 197.506 560.113 193.258 568.964 191.64Z"/>
	<path fill="#010101" d="M287.024 709.443C280.853 709.514 273.699 710.39 268.505 706.378C264.93 703.616 263.122 699.989 262.541 695.605C261.672 689.044 262.026 682.216 262.027 675.601L262.022 646.122Q261.864 594.283 262.241 542.448L262 441.42C261.98 426.945 261.221 412.079 262.009 397.641C262.252 393.182 262.883 389.122 265.793 385.53Q266.387 384.806 267.049 384.143Q267.711 383.48 268.435 382.886Q269.16 382.292 269.939 381.771Q270.718 381.251 271.544 380.81Q272.371 380.369 273.236 380.011Q274.102 379.653 274.999 379.382Q275.896 379.111 276.815 378.93Q277.734 378.748 278.666 378.658C285.857 377.946 293.509 378.5 300.751 378.524L338.847 378.498L471.185 378.493L643.378 378.466L699.851 378.467C710.175 378.477 720.687 378.093 730.984 378.689C734.394 378.886 737.237 379.977 739.829 382.226C744.301 386.108 746.566 390.908 746.897 396.766C747.778 412.341 746.901 428.358 746.936 443.989L746.909 553.929L746.825 644.265L746.927 675.462C746.948 681.821 747.238 688.351 746.669 694.684C746.277 699.047 744.738 702.16 741.705 705.388C738.809 708.471 735.127 709.21 731.069 709.7C725.149 710.415 718.735 709.962 712.753 709.974L676.722 710.038C633 710.099 589.23 709.575 545.514 710.169L545.592 760.465Q558.1 760.611 570.608 760.4C575.272 760.353 580.759 759.737 585.311 760.678C587.258 761.08 588.612 761.747 589.703 763.451C589.865 764.819 589.869 765.115 589.361 766.386C588.852 766.715 588.4 767.002 587.821 767.195C584.027 768.459 535.839 767.542 528.111 767.551L445.843 767.639C440.04 767.618 434.216 768.01 428.425 767.916C426.803 767.89 424.315 767.786 422.885 766.909C421.638 766.145 421.577 765.82 421.187 764.5C421.411 763.604 421.568 762.69 422.257 762.011C423.338 760.945 425.199 760.602 426.645 760.46C430.042 760.125 433.587 760.589 437.007 760.629C444.401 760.715 451.805 760.622 459.199 760.592L459.175 709.994C434.507 709.974 409.727 709.563 385.076 710.35C384.538 713.432 383.919 716.522 383.047 719.529C380.533 728.195 375.324 735.233 367.425 739.648C367.635 727.101 366.342 714.763 365.345 702.274C363.767 702.914 362.082 703.327 360.445 703.794C359.296 706.777 358.357 709.873 357.006 712.771C352.38 722.693 344.528 732.744 333.848 736.418C323.422 740.006 313.091 737.65 303.549 732.835L303.585 739.341C303.474 742.732 304.55 750.254 302.741 752.854L301.072 752.981C301.106 745.829 301.76 737.8 300.355 730.799C294.399 724.503 291.017 717.03 287.024 709.443Z"/>
	<path fill="#FEFEFE" d="M358.488 673.476C359.639 673.426 360.852 673.358 361.992 673.561C364.922 674.082 367.627 676.438 369.066 678.957C371.259 682.796 371.513 687.917 370.333 692.116C369.17 696.254 367.17 698.664 363.492 700.761C362.56 701.033 361.491 701.334 360.512 701.281C358.448 701.17 356.09 699.565 354.866 697.971C352.277 694.599 351.509 689.254 352.011 685.136C352.622 680.121 354.514 676.539 358.488 673.476Z"/>
	<path fill="#FEFEFE" d="M376.56 676.034L377.014 676.749C375.726 688.914 382.285 697.205 382.41 708.476C382.518 718.282 378.187 727.129 371.337 733.924C371.117 734.054 370.833 734.004 370.578 734.024C369.528 730.894 368.414 706.491 368.013 701.481C369.862 699.573 371.239 697.666 372.234 695.182C374.596 689.288 373.446 683.801 371.042 678.194L376.56 676.034Z"/>
	<path fill="#FEFEFE" d="M637.511 618.006C644.831 619.026 652.351 620.94 658.57 625.07L658.598 671.55C658.619 681.257 658.296 691.176 659.194 700.847C651.856 698.687 645.129 695.352 637.482 694.312C637.187 668.891 637.421 643.43 637.511 618.006Z"/>
	<path fill="#FEFEFE" d="M466.543 710.049L538.148 710.071C538.557 726.76 538.688 743.756 538.134 760.437C514.315 761.124 490.327 760.542 466.492 760.518L466.543 710.049Z"/>
	<path fill="#FEFEFE" d="M690.281 616.699C699.418 615.883 708.271 617.478 717.005 620.046Q717.099 658.808 716.66 697.567C706.415 694.692 697.016 693.164 686.38 694.186C677.346 695.303 669.221 697.941 660.827 701.331C662.276 676.138 659.717 650.657 661.356 625.483C670.156 619.992 680.055 617.604 690.281 616.699Z"/>
	<path fill="#FEFEFE" d="M280.854 385.225C291.61 384.773 302.455 385.05 313.223 385.056L368.977 385.092L546.917 385.238L666.96 385.21L705.947 385.075C714.169 385.048 722.552 384.656 730.741 385.474C732.535 385.653 734.284 385.743 735.668 387.038C735.803 387.164 735.921 387.308 736.057 387.433C736.31 387.665 736.597 387.86 736.837 388.106C738.942 390.256 739.504 395.615 739.67 398.57C740.313 410.01 739.614 421.719 739.733 433.196Q740.176 482.883 739.864 532.57L739.855 640.43C739.867 656.188 740.366 672.021 739.973 687.768C739.845 692.912 739.945 697.51 735.801 701.199C734.081 702.729 731.902 702.966 729.694 703.196C722.488 703.943 714.607 703.246 707.327 703.234C692.788 703.21 678.221 703.38 663.687 702.975C685.901 693.913 696.146 695.646 719.075 700.101C719.754 673.115 719.819 645.805 719.385 618.814C717.517 617.888 715.503 617.209 713.498 616.643C697.714 612.187 677.733 613.743 663.283 621.683C662.411 622.253 661.155 623.431 660.039 623.187C658.272 622.801 655.614 620.952 653.914 620.109C647.717 617.033 641.985 615.905 635.119 615.347C634.547 642.287 634.952 669.368 635.13 696.319C642.505 697.653 648.685 699.18 655.204 703.011C637.964 703.433 620.742 703.138 603.5 703.1L539.491 703.159L384.492 703.008C381.546 693.612 377.794 684.352 379.775 674.392C381.395 672.844 383.153 671.412 384.844 669.941C384.861 667.586 384.555 665.127 384.189 662.8C381.716 647.074 373.539 630.821 360.395 621.379C347.79 612.325 330.281 609.607 315.17 612.148C302.508 614.276 290.471 620.974 283.001 631.555C269.105 651.236 272.051 667.258 278.844 689.014C280.07 692.939 282.338 696.713 283.051 700.712C282.522 701.746 282.355 701.753 281.229 702.09C278.765 702.826 274.973 701.854 272.898 700.461C271.275 699.371 269.978 697.647 269.635 695.695C268.544 689.487 269.485 673.565 269.517 666.393L269.525 602.716L269.539 461.14L269.601 426.075C269.544 417.562 269.199 408.933 269.489 400.432C269.615 396.74 269.963 392.62 272.236 389.568C274.449 386.595 277.318 385.665 280.854 385.225Z"/>
	<path fill="#010101" d="M297.752 397.118C314.172 396.646 330.714 397.039 347.146 397.034L440.613 397L704.403 396.892L704.303 541.917L704.405 578.791C704.426 584.3 705.292 591.284 704.084 596.592L703.102 597.132C680.702 598.15 657.924 597.431 635.5 597.384L526.015 597.06Q411.842 596.319 297.668 596.906C297.056 585.537 297.645 573.772 297.691 562.36L297.814 495.665L297.56 430.377C297.536 419.388 296.999 408.067 297.752 397.118Z"/>
	<path fill="#FEFEFE" d="M602.959 472.696L604.098 473.413C605.191 476.423 605.614 480.363 605.307 483.54C604.251 484.258 602.504 483.905 601.223 483.886C600.401 483.762 599.745 483.533 598.978 483.216C598.934 483.075 598.873 482.937 598.848 482.791C598.328 479.812 601.448 475.182 602.959 472.696Z"/>
	<path fill="#DA665B" d="M595.748 485.986C598.976 485.997 602.083 486.276 605.287 486.664C604.754 494.505 602.18 506.476 599.693 513.949L590.34 513.931Q592.902 499.931 595.748 485.986Z"/>
	<path fill="#FEFEFE" d="M516.442 490.957C517.068 494.472 516.828 499.344 516.614 502.943C516.281 508.55 514.434 513.995 510.064 517.743C507.099 520.286 503.269 521.791 499.335 521.439C494.063 520.967 489.975 517.722 486.788 513.737C483.662 507.229 484.536 499.122 484.61 492.085C488.264 494.648 492.276 497.009 496.726 497.81C504.153 499.149 510.63 494.994 516.442 490.957Z"/>
	<path fill="#FEFEFE" d="M592.947 540.199C598.826 539.942 605.231 539.2 611.056 540.153C614.845 540.773 617.865 542.743 619.953 545.978C622.718 550.264 623.074 555.414 621.929 560.29C620.982 564.322 618.972 569.004 615.205 571.161C611.86 573.077 597.326 573.001 593.718 571.734C591.878 571.089 591.347 570.208 590.628 568.536C590.968 562.103 604.722 567.172 607.838 564.286L607.769 563.434C606.183 562.161 603.182 562.873 601.125 562.983C597.078 562.981 591.138 564.235 587.492 562.27C586.776 561.127 586.835 561.106 587.004 559.756C590.721 554.377 602.843 559.113 608.916 555.501L606.953 555.182L607.392 555.151C602.791 554.921 590.502 556.135 587.111 554.253C585.937 553.601 585.624 553.04 585.203 551.811C587.14 545.598 603.893 550.94 608.569 547.795L608.103 547.185C602.302 545.455 595.256 546.647 589.183 546.2C590.194 543.905 591.143 541.98 592.947 540.199Z"/>
	<path fill="#FEFEFE" d="M498.946 424.194C504.191 423.949 509.45 424.803 514.187 427.136C520.949 430.467 525.732 436.459 528.184 443.503C531.743 453.727 529.999 464.589 525.376 474.164C520.525 484.212 513.241 491.886 502.597 495.579C496.526 495.945 491.394 493.933 486.68 490.167C478.034 483.26 472.208 471.555 471.076 460.634C470.131 451.523 472.087 442.244 477.993 435.069C483.407 428.492 490.549 425.056 498.946 424.194Z"/>
	<path fill="#FEFEFE" d="M547.851 516.596C558.602 516.386 602.407 515.02 609.76 517.439C611.449 520.079 609.467 533.564 609.153 537.544C603.463 537.525 597.664 537.272 592 537.856C591.066 538.661 590.055 539.498 589.288 540.471C587.981 542.131 583.002 551.556 583.322 553.32C583.648 555.121 585.365 556.034 585.699 557.885C585.099 559.218 584.372 560.473 584.743 561.975C585.089 563.381 586.305 563.94 587.446 564.656L587.977 564.982C588.817 566.209 588.456 567.571 588.551 568.977C589.073 576.731 599.155 572.367 602.88 575.485L602.842 577.121L601.263 595.051C579.716 595.031 558.012 594.499 536.489 595.403C536.596 579.912 539.084 564.166 540.559 548.748C541.26 541.417 541.514 526.74 543.688 520.288C544.405 518.161 545.96 517.467 547.851 516.596Z"/>
	<path fill="#FEFEFE" d="M299.985 399.481C350.449 398.935 400.975 399.408 451.443 399.426L702.226 399.364C701.576 420.327 702.066 441.413 702.075 462.387L702.231 595.275L616.452 595.357C616.561 588.531 617.312 581.023 615.044 574.506C619.339 570.845 622.56 566.791 624.223 561.292C625.764 556.192 625.616 550.674 622.987 545.951C620.379 541.267 616.368 539.025 611.42 537.568C611.554 532.364 612.535 527.414 612.874 522.264C613.032 519.86 612.782 517.384 611.036 515.561C609.011 513.447 605.828 513.721 603.132 513.602C605.08 503.807 608.239 492.905 608.115 482.929C608.074 479.659 608.209 473.511 605.421 471.307C604.141 470.294 602.748 470.516 601.247 470.664C591.98 485.558 591.137 497.15 587.723 513.908L554.189 514.293C544.22 506.541 531.684 497.863 518.901 496.132L518.879 488.879C524.879 480.466 530.026 472.474 531.813 462.117C533.492 452.392 532.014 442.63 526.132 434.541C521.262 427.843 514.261 423.545 506.055 422.348C497.228 421.061 488.167 423.089 481.063 428.554C473.868 434.09 469.71 442.421 468.61 451.355C466.718 466.719 473.456 478.736 482.634 490.373L482.465 497.672C474.679 499.692 467.723 503.926 461.058 508.318C431.622 527.711 409.907 560.133 402.734 594.516C368.587 593.615 334.242 594.531 300.07 594.574L299.985 399.481Z"/>
</svg>
