<?xml version="1.0" encoding="utf-8" ?>
<svg xmlns="http://www.w3.org/2000/svg" xmlns:xlink="http://www.w3.org/1999/xlink" width="1024" height="1024">
	<path fill="#FEFEFE" d="M0 0L1024 0L1024 1024L0 1024L0 0Z"/>
	<path fill="#010101" d="M163.74 325.626C168.452 325.335 172.782 325.417 177.327 326.884C183.901 329.006 192.232 334.153 194.998 340.758C195.517 341.999 195.501 342.127 194.964 343.25L194.018 343.525C192.405 342.483 191.739 340.257 190.621 338.731C186.453 333.048 178.622 329.322 171.825 328.239L171.12 328.133C169.027 327.976 166.991 327.906 164.899 328.08C157.775 328.674 150.676 332.203 145.917 337.57C144.455 339.218 143.431 341.219 141.963 342.85C141.228 343.667 141.211 343.853 140.074 343.92L139.421 342.536C139.444 341.433 139.622 340.659 140.246 339.727C145.259 332.239 155.08 327.146 163.74 325.626Z"/>
	<path fill="#010101" d="M161.887 297.669Q163.691 297.449 165.505 297.355Q167.32 297.261 169.137 297.295Q170.954 297.329 172.764 297.489Q174.574 297.65 176.368 297.937Q178.162 298.224 179.932 298.635Q181.702 299.047 183.439 299.581Q185.176 300.116 186.871 300.771Q188.566 301.425 190.211 302.197C196.612 305.255 209.534 315.126 211.579 322.026C211.843 322.914 211.846 322.548 211.364 323.373L210.095 323.371C207.753 321.735 205.835 318.163 204.078 315.878C196.43 305.927 183.184 301.535 171.264 299.96L170.617 299.952C156.557 299.81 141.662 304.477 131.911 315.17C129.353 317.975 127.614 321.787 124.812 324.327C123.963 325.097 123.907 325.147 122.727 325.117L122.421 324.156C123.03 321.938 124.668 319.854 126.023 318.021C134.579 306.45 147.969 299.863 161.887 297.669Z"/>
	<path fill="#010101" d="M165.849 268.712C178.66 267.83 192.952 271.679 204.176 277.715C211.248 281.519 226.661 292.747 229.059 300.597L228.087 301.479C224.321 299.488 220.764 294.16 217.85 291.023C205.982 278.246 186.073 271.903 169.102 271.327C149.916 270.806 131.54 278.752 117.384 291.434C114.088 294.387 111.628 298.432 108.175 301.158C107.353 301.806 107.227 302.001 106.164 301.85C106.123 299.404 108.518 296.963 110.09 295.171C124.784 278.421 143.895 270.214 165.849 268.712Z"/>
	<path fill="#010101" d="M167.319 352.184C171.563 352.456 175.163 352.967 178.651 355.673C182.185 358.415 184.413 362.617 184.924 367.04Q185.024 367.93 185.037 368.826Q185.05 369.721 184.976 370.614Q184.902 371.507 184.741 372.388Q184.581 373.269 184.335 374.131Q184.09 374.992 183.761 375.825Q183.433 376.659 183.026 377.457Q182.618 378.254 182.135 379.008Q181.651 379.762 181.097 380.466C178.16 384.136 174.198 386.173 169.565 386.617C164.98 386.538 161.333 386.067 157.595 383.151C154.041 380.377 151.851 376.232 151.289 371.785C150.696 367.098 151.818 362.018 154.831 358.31C158.112 354.271 162.344 352.794 167.319 352.184Z"/>
	<path fill="#FEFEFE" d="M164.603 355.046C167.684 354.714 170.801 354.777 173.698 355.984Q174.369 356.263 175.008 356.608Q175.647 356.954 176.248 357.363Q176.848 357.772 177.404 358.24Q177.959 358.708 178.464 359.231Q178.969 359.753 179.418 360.325Q179.867 360.896 180.255 361.51Q180.643 362.124 180.966 362.775Q181.29 363.426 181.545 364.106C182.949 367.82 182.866 371.886 181.191 375.499C179.355 379.462 176.013 381.911 172.032 383.426C168.842 384.102 165.801 384.157 162.736 382.932Q162.054 382.659 161.404 382.318Q160.754 381.976 160.142 381.568Q159.531 381.161 158.966 380.692Q158.4 380.223 157.886 379.698Q157.373 379.173 156.916 378.598Q156.459 378.023 156.065 377.403Q155.671 376.783 155.343 376.126Q155.015 375.469 154.757 374.781Q154.494 374.081 154.302 373.359Q154.11 372.636 153.989 371.899Q153.869 371.161 153.822 370.415Q153.775 369.669 153.802 368.922Q153.829 368.175 153.929 367.434Q154.03 366.693 154.203 365.966Q154.375 365.239 154.619 364.532Q154.863 363.825 155.175 363.146C157.115 358.939 160.386 356.648 164.603 355.046Z"/>
	<path fill="#D1E1DD" d="M500.285 309.086C503.045 311.403 505.626 314.429 508.201 316.972C516.526 325.192 524.542 333.71 532.76 342.038C521.779 352.939 510.854 364.282 500.448 375.733C496.064 372.779 491.9 367.875 488.143 364.103Q477.365 353.377 466.828 342.415C472.379 336.097 478.496 330.161 484.388 324.156C489.4 319.05 494.375 313.153 500.285 309.086Z"/>
	<path fill="#FEFEFE" d="M499.886 312.911C503.052 315.235 505.951 318.912 508.704 321.74Q518.664 331.89 528.473 342.186C518.776 351.845 509.855 362.378 499.784 371.657C491.591 363.081 479.488 349.986 470.591 342.713C479.919 332.512 490.033 322.62 499.886 312.911Z"/>
	<path fill="#F16F6E" d="M824.092 161.699C832.931 161.341 841.392 164.097 848.751 168.89C871.913 183.978 882.307 213.243 887.88 238.966L889.299 236.398C894.601 226.903 901.184 218.208 912.218 215.305C919.422 213.409 926.908 214.277 933.327 218.138C946.855 226.276 952.591 242.795 956.272 257.245C936.49 256.949 916.644 257.472 896.854 257.499L777.052 257.339L655.134 257.128Q655.362 256.193 655.608 255.263C660.592 236.365 668.999 217.793 686.68 207.67Q687.573 207.151 688.491 206.677Q689.408 206.203 690.348 205.775Q691.289 205.347 692.249 204.967Q693.209 204.587 694.187 204.255Q695.165 203.923 696.159 203.641Q697.152 203.358 698.159 203.125Q699.165 202.893 700.182 202.71Q701.198 202.528 702.223 202.397Q703.247 202.266 704.277 202.186Q705.307 202.106 706.339 202.077Q707.372 202.049 708.404 202.072Q709.437 202.095 710.467 202.169Q711.497 202.244 712.523 202.37Q713.548 202.495 714.565 202.672Q715.583 202.849 716.591 203.076Q717.598 203.304 718.593 203.581C735.733 208.494 746.292 223.15 754.553 237.92C756.67 232.433 758.39 226.803 760.606 221.345Q762.73 216.104 765.27 211.051Q767.81 205.998 770.75 201.166Q773.689 196.335 777.008 191.756Q780.328 187.177 784.006 182.881C794.948 170.327 807.368 162.878 824.092 161.699Z"/>
	<path fill="#010101" d="M828.602 398.453C830.338 396.335 831.956 394.178 834.153 392.515L829.764 398.552C833.609 400.756 837.27 403.256 838.572 407.763C840.567 414.666 839.445 429.25 839.424 436.921L839.128 491.729L839.32 606.205C839.367 629.741 838.813 653.416 839.5 676.933C840.229 675.143 841.154 671.54 842.382 670.195C841.448 673.698 839.799 677.489 839.431 681.06C838.577 689.369 839.348 698.5 839.324 706.92Q839.208 736.379 839.394 765.839C848.169 765.856 864.331 764.606 872.357 766.772Q873.667 767.116 874.922 767.626Q876.177 768.137 877.356 768.806Q878.534 769.475 879.615 770.29Q880.697 771.106 881.664 772.055C885.675 776.053 887.866 782.168 887.689 787.798C887.465 794.926 883.171 800.264 878.256 804.948Q888.021 805.146 897.787 805.058Q901.546 800.915 905.506 796.964L905.525 797.002L905.403 797.075L905.667 797.174Q902.447 801.169 898.985 804.957L936.098 805.007C942.261 805.008 948.681 804.599 954.8 805.097C955.655 805.167 956.136 805.284 956.816 805.852C957.078 807.002 957.089 806.969 956.536 808.008C955.835 808.382 955.236 808.614 954.432 808.647C936.186 809.395 916.214 808.752 897.76 808.802L781.283 809.022L413.21 809.051Q416.823 826.942 420.741 844.769C421.759 849.474 424.475 857.882 424.227 862.473C423.206 863.211 422.903 863.182 421.628 863.29L420.835 862.918C413.197 861.545 402.041 862.678 393.996 862.683L334.341 862.637C265.291 862.712 196.152 861.877 127.115 862.919C126.064 863.486 126.012 863.674 124.762 863.601C123.767 862.29 123.902 861.378 124.124 859.773C125.141 852.384 127.168 844.995 128.796 837.709C130.972 827.968 132.933 818.13 135.394 808.459Q100.39 808.062 65.3834 808.125C55.5428 808.126 45.305 808.785 35.5059 808.232C33.7868 808.135 32.4538 807.927 30.8701 807.249L30.2981 806.294C30.8762 805.267 31.0697 804.962 32.3607 804.727C37.3339 803.818 45.7847 804.757 51.2145 804.801C58.6975 804.863 122.749 805.64 124.483 804.241L123.972 803.257L124.432 803.195C127.086 805.675 132.493 804.71 136.07 804.614C137.588 797.433 138.821 789.921 141.039 782.934Q141.527 781.437 142.079 779.961Q142.63 778.486 143.244 777.036Q143.857 775.585 144.532 774.162Q145.206 772.739 145.94 771.345Q146.674 769.952 147.467 768.591Q148.259 767.23 149.109 765.903Q149.958 764.577 150.863 763.288Q151.768 761.999 152.726 760.749Q153.685 759.5 154.696 758.292Q155.706 757.084 156.767 755.92Q157.828 754.756 158.937 753.638Q160.047 752.52 161.202 751.45Q162.358 750.38 163.558 749.36Q164.758 748.34 166 747.372Q167.242 746.403 168.524 745.489Q169.806 744.574 171.126 743.714C174.729 741.393 178.504 739.404 182.303 737.43L182.463 643.323C182.474 626.423 180.792 600.935 184.39 585.048C187.976 569.214 196.071 553.723 207.568 542.205C222.797 526.948 244.229 517.522 265.874 517.531C279.559 517.537 292.245 521.581 304.446 527.468L304.45 446.908C304.432 435.812 303.332 418.635 304.729 408.409C305.043 406.106 306.19 404.01 307.799 402.353C309.678 400.416 312.192 398.764 314.942 398.562C322.167 398.031 329.604 398.347 336.851 398.353L374.882 398.399L493.93 398.456L824.982 398.381Q826.792 398.405 828.602 398.453Z"/>
	<path fill="#FEFEFE" d="M637.349 714.948L637.619 715.257C637.886 722.47 634.884 738.479 633.858 746.479L620.125 746.447L619.885 746.256C619.831 746.008 619.678 745.761 619.722 745.511C619.923 744.374 635.4 718.504 637.349 714.948Z"/>
	<path fill="#FEFEFE" d="M693.563 610.003C700.731 612.21 706.781 611.215 713.932 609.672C713.114 619.762 716.15 626.211 721.514 634.462L715.25 634.504Q700.598 634.588 685.947 634.487C690.369 626.604 693.142 619.064 693.563 610.003Z"/>
	<path fill="#FEFEFE" d="M535.732 531.608C536.709 532.226 537.436 532.725 537.993 533.766C541.332 540.002 545.559 560.318 547.166 568.446C547.581 570.542 547.099 573.542 548.339 575.244L549.72 575.257C553.192 571.97 551.402 562.87 553.895 558.518C554.38 557.671 554.121 557.947 555.102 557.63C555.492 557.89 555.804 558.067 556.123 558.434C556.945 559.377 556.966 561.132 557.052 562.314C557.451 567.812 557.048 573.584 557.034 579.117Q556.95 595.403 557.441 611.681C549.962 613.464 542.375 615.229 535.182 617.974C534.057 613.748 533.041 609.165 531.158 605.205C526.999 596.459 507.897 567.841 509.447 560.878L510.244 560.622C513.751 562.688 516.106 567.405 518.222 570.764C519.14 572.356 520.003 574.366 521.155 575.767C521.991 576.784 522.775 577.178 524.038 577.343L524.644 576.418C525.254 566.85 517.437 555.046 514.364 546.084C513.848 544.58 513.979 543.809 514.659 542.409L515.478 542.325C521.328 548.54 526.88 570.642 531.184 573.687C531.801 574.124 532.023 573.852 532.68 573.668C535.078 569.191 528.189 552.924 526.098 547.861C524.739 544.573 522.194 540.81 522.359 537.159C522.409 536.041 522.242 536.453 523.01 535.716C529.429 539.71 533.681 562.547 538.42 569.345C539.167 570.416 539.47 570.363 540.688 570.622L541.525 569.969C542.149 558.283 534.065 544.712 535.643 532.264L535.732 531.608Z"/>
	<path fill="#FEFEFE" d="M701.445 557.672C706.419 557.422 711.465 558.394 715.688 561.136C721.355 564.816 725.197 571.404 726.411 577.986Q726.53 578.668 726.615 579.355Q726.7 580.042 726.75 580.733Q726.801 581.424 726.817 582.116Q726.834 582.808 726.815 583.5Q726.797 584.193 726.745 584.883Q726.692 585.573 726.605 586.26Q726.519 586.947 726.398 587.629Q726.277 588.311 726.122 588.986Q725.968 589.661 725.78 590.327Q725.592 590.994 725.371 591.65Q725.15 592.306 724.897 592.951Q724.644 593.595 724.359 594.226Q724.074 594.857 723.758 595.474Q723.442 596.09 723.096 596.689Q722.75 597.289 722.374 597.871Q721.999 598.453 721.595 599.015C717.425 604.808 712.257 607.36 705.419 608.573C699.598 608.724 695.116 607.903 690.268 604.483Q689.705 604.082 689.162 603.654Q688.62 603.226 688.099 602.772Q687.579 602.317 687.081 601.837Q686.584 601.357 686.112 600.853Q685.639 600.348 685.192 599.821Q684.745 599.294 684.326 598.745Q683.906 598.196 683.514 597.627Q683.121 597.058 682.758 596.47Q682.395 595.882 682.062 595.276Q681.728 594.671 681.426 594.05Q681.123 593.428 680.852 592.793Q680.58 592.157 680.341 591.509Q680.102 590.86 679.895 590.201Q679.688 589.542 679.515 588.873Q679.342 588.203 679.202 587.527Q679.062 586.85 678.956 586.167Q678.869 585.539 678.813 584.908Q678.757 584.277 678.732 583.644Q678.707 583.01 678.713 582.377Q678.719 581.743 678.756 581.11Q678.794 580.478 678.862 579.848Q678.931 579.218 679.03 578.592Q679.129 577.966 679.26 577.346Q679.39 576.726 679.55 576.113Q679.71 575.499 679.901 574.895Q680.091 574.291 680.311 573.696Q680.531 573.102 680.78 572.519Q681.029 571.936 681.306 571.367Q681.583 570.797 681.888 570.241Q682.193 569.686 682.525 569.146Q682.857 568.606 683.215 568.083Q683.574 567.561 683.957 567.056C688.451 561.088 694.257 558.607 701.445 557.672Z"/>
	<path fill="#FEFEFE" d="M346.433 589.015L446.881 589.016C447.242 611.442 446.66 633.913 446.772 656.35C444.323 657.378 358.358 656.529 347.344 656.526C347.272 634.109 348.013 611.377 346.433 589.015Z"/>
	<path fill="#D1E1DD" d="M347.118 660.017C380.307 660.056 413.643 659.386 446.808 660.29Q447.023 703.367 446.7 746.444C423.743 746.254 400.768 746.768 377.817 746.365C368.027 739.766 358.532 735.251 347.168 732.164L347.118 660.017Z"/>
	<path fill="#FEFEFE" d="M326.626 471.902L446.497 471.914L446.635 585.521L425.135 585.52L373.435 585.514C364.654 585.515 355.183 584.835 346.48 585.831C344.974 584.553 341.203 569.636 339.537 565.884C336.189 558.341 331.385 551.772 326.535 545.153L326.626 471.902Z"/>
	<path fill="#BBBCBC" d="M346.48 585.831C346.576 585.695 346.676 585.56 346.77 585.422C350.339 580.193 351.72 571.505 353.277 565.353C358.073 546.39 364.984 512.084 374.043 495.632C376.361 491.422 379.945 486.085 384.987 485.139C387.44 484.679 389.665 485.412 391.668 486.832C395.381 489.464 398.031 493.983 399.98 498.02C408.139 514.912 413.404 537.317 418.087 555.634C420.568 565.34 423.427 575.284 425.091 585.157C425.112 585.277 425.121 585.399 425.135 585.52L373.435 585.514C364.654 585.515 355.183 584.835 346.48 585.831Z"/>
	<path fill="#FEFEFE" d="M401.105 769.259C441.501 768.422 482.012 769.199 522.421 769.299L683.445 769.085L804.599 769.121L842.938 769.178C850.478 769.187 858.166 768.92 865.692 769.354C870.37 769.624 874.597 770.173 878.378 773.224C882.017 776.16 883.886 780.526 884.156 785.134C884.519 791.354 882.099 796.163 878.062 800.661C874.657 803.119 871.406 804.962 867.141 805.312C861.306 805.792 855.295 805.52 849.434 805.516L817.709 805.488L720.683 805.564L412.357 805.626C410.646 797.25 408.888 788.685 405.489 780.803C403.85 777.003 401.331 773.558 399.958 769.664L401.105 769.259Z"/>
	<path fill="#010101" d="M487.055 790.721C499.52 790.701 585.335 789.846 588.399 791.081C589.599 791.565 590.52 792.273 590.952 793.544C591.326 794.646 591.131 795.992 590.572 796.997C589.815 798.357 588.94 798.811 587.585 799.337C564.632 799.661 541.655 799.479 518.699 799.475C511.254 799.474 493.123 800.573 486.666 798.874C485.173 798.481 484.035 798.012 483.218 796.626C483.151 795.062 483.252 794.115 483.734 792.627C484.832 791.298 485.46 791.146 487.055 790.721Z"/>
	<path fill="#5677BA" d="M326.486 423.504L815.719 423.475L815.571 468.606L326.517 468.5L326.486 423.504Z"/>
	<path fill="#545B57" d="M565.308 612.502L566.192 612.482C568.183 614.882 584.351 699.473 587.526 711.012C587.837 712.144 587.946 713.036 588.976 713.632C593.709 709.735 598.3 699.938 601.818 694.494L622.431 662.576C625.628 657.695 628.701 652.498 632.254 647.875C636.312 642.595 641.701 638.84 648.455 638.079C654.688 637.376 661.246 637.677 667.518 637.708L696.516 637.831L733.09 637.808C740.53 637.805 749.01 637.116 756.315 638.591C762.088 639.757 767.582 642.695 772.146 646.362Q773.138 647.153 774.075 648.008Q775.012 648.863 775.892 649.777Q776.771 650.691 777.589 651.661Q778.407 652.631 779.159 653.652Q779.911 654.674 780.595 655.742Q781.279 656.811 781.891 657.922Q782.504 659.033 783.042 660.182Q783.58 661.33 784.042 662.512C787.861 672.396 788.336 685.391 789.824 695.937C792.162 712.507 794.77 729.121 796.645 745.746L795.983 746.467L637.036 746.508C638.31 741.43 638.428 735.598 639.138 730.378C640.035 723.785 641.707 716.743 641.963 710.122C642.02 708.676 642.084 708.112 641.428 706.844C640.367 706.191 640.339 705.835 639.067 706.11C636.065 709.46 634.514 714.241 632.255 718.121C626.731 727.609 620.984 736.924 615.599 746.502L569.955 746.487C561.022 719.044 553.683 690.966 545.301 663.333C541.079 649.414 536.108 635.695 531.502 621.897C536.972 620.631 542.349 618.779 547.771 617.289C553.616 615.682 559.54 614.377 565.308 612.502Z"/>
	<path fill="#D1E1DD" d="M347.099 735.688Q348.098 735.955 349.091 736.246Q350.083 736.537 351.068 736.852Q352.054 737.166 353.031 737.505Q354.008 737.844 354.977 738.206Q355.946 738.568 356.905 738.954Q357.865 739.34 358.815 739.748Q359.765 740.157 360.705 740.589Q361.645 741.021 362.574 741.475Q363.503 741.929 364.421 742.406Q365.339 742.883 366.245 743.382Q367.151 743.881 368.044 744.401Q368.938 744.922 369.819 745.464Q370.7 746.006 371.567 746.57Q372.434 747.133 373.288 747.717Q374.141 748.301 374.98 748.906Q375.82 749.511 376.644 750.136Q377.468 750.761 378.277 751.405Q379.085 752.05 379.878 752.714Q380.671 753.378 381.448 754.061Q382.224 754.745 382.984 755.446Q383.744 756.148 384.486 756.868Q385.229 757.588 385.954 758.326Q386.679 759.063 387.386 759.818Q388.092 760.574 388.781 761.346Q389.469 762.118 390.138 762.906Q390.808 763.694 391.458 764.499Q392.108 765.303 392.738 766.123Q393.369 766.943 393.979 767.778Q394.589 768.613 395.179 769.463Q395.769 770.312 396.338 771.176Q396.907 772.04 397.455 772.917Q398.003 773.794 398.53 774.684C401.416 779.618 403.57 784.927 405.245 790.384C408.831 802.074 410.678 814.601 413.273 826.568C415.864 838.518 419.509 850.766 420.835 862.918C413.197 861.545 402.041 862.678 393.996 862.683L334.341 862.637C265.291 862.712 196.152 861.877 127.115 862.919C129.555 847.957 133.333 833.137 136.656 818.353C143.002 790.116 144.419 767.038 170.203 748.556Q175.87 744.492 182.221 741.61L182.347 788.354L283.428 788.326C304.555 788.314 325.901 788.853 347.004 788.106L347.099 735.688Z"/>
	<path fill="#FEFEFE" d="M313.418 402.047Q314.63 401.98 315.843 401.937C328.215 401.491 340.762 401.912 353.156 401.92L426.848 401.948L656.231 401.994L773.686 401.928L807.867 401.874C813.951 401.866 820.574 401.34 826.582 402.193C828.625 402.483 830.866 403.468 832.32 404.955C833.979 406.652 835.169 409.026 835.393 411.383C836.406 422.066 835.543 435.869 835.533 446.943L835.484 521.726L835.717 765.763L396.682 765.664C392.256 759.716 387.057 754.756 381.485 749.915L474.75 749.562L719.28 749.81Q768.996 750.106 818.711 749.694L818.597 515.197C818.615 483.516 819.386 451.799 818.895 420.125C789.656 419.265 760.161 420.109 730.898 420.13L551.335 420.291L395.6 420.186L351.633 420.208C342.272 420.183 332.851 419.873 323.5 420.286C323 460.62 324.435 501.115 323.215 541.423C318.53 536.637 313.154 533.076 307.654 529.31L307.637 445.293C307.623 437.087 306.466 414.304 308.17 407.862C308.94 404.949 310.972 403.549 313.418 402.047Z"/>
	<path fill="#010101" d="M570.576 404.011C571.804 403.984 573.137 403.904 574.304 404.349Q574.641 404.479 574.964 404.641Q575.287 404.804 575.592 404.997Q575.898 405.19 576.183 405.412Q576.468 405.634 576.731 405.882Q576.993 406.131 577.23 406.404Q577.466 406.677 577.676 406.972Q577.885 407.267 578.064 407.58Q578.243 407.894 578.391 408.224Q578.525 408.517 578.627 408.822Q578.729 409.127 578.798 409.442Q578.867 409.756 578.902 410.076Q578.937 410.396 578.938 410.718Q578.939 411.04 578.906 411.36Q578.873 411.68 578.806 411.995Q578.738 412.31 578.638 412.616Q578.538 412.921 578.406 413.215C577.388 415.462 575.662 416.188 573.473 416.951C572.809 416.955 572.156 416.962 571.495 416.896C569.33 416.681 567.337 415.981 566.038 414.139C565.128 412.847 564.85 411.245 565.223 409.711C565.956 406.703 568.017 405.426 570.576 404.011Z"/>
	<path fill="#FEFEFE" d="M449.987 471.918L815.335 471.922L815.46 746.092Q808.046 746.072 800.643 746.472C798.541 738.802 798.08 730.196 797.074 722.308L792.009 685.13C790.99 677.667 790.305 669.894 787.764 662.763Q786.977 660.571 785.957 658.478Q784.937 656.384 783.696 654.414Q782.454 652.444 781.005 650.621Q779.557 648.797 777.919 647.142C762.578 631.642 745.305 634.553 725.396 634.474C719.389 625.606 717.249 619.81 716.697 609.03C722.174 603.273 729.83 599.907 732.825 592.054C735.782 584.3 732.784 576.25 729.601 569.133C732.15 562.009 734.753 556.036 733.695 548.266C732.653 540.607 728.479 533.951 722.344 529.352C716.572 525.026 709.193 522.407 701.946 523.562C694.384 524.768 689.62 529.446 685.29 535.334C678.364 536.031 671.649 537.894 666.74 543.153C660.653 549.675 658.498 559.455 658.919 568.146C659.505 580.219 665.161 592.01 675.378 598.82C680.695 602.364 685.808 604.512 690.613 608.88C690.679 614.902 689.069 619.997 686.972 625.567C685.628 628.73 683.988 631.66 681.944 634.419C671.5 634.692 655.437 632.878 645.823 635.169C641.487 636.202 637.063 638.31 633.825 641.404C627.403 647.541 615.524 667.45 609.929 676.147C603.272 686.495 596.307 696.675 589.951 707.211C587.894 694.198 584.658 681.228 581.848 668.348L568.618 607.96C566.089 608.737 563.607 609.761 561.126 610.682C559.247 599.752 560.445 583.706 560.483 572.183C560.496 568.097 560.774 563.797 560.157 559.748C559.852 557.749 558.929 555.387 557.016 554.38C555.991 553.841 554.844 553.961 553.844 554.482C550.97 555.978 549.936 559.091 548.949 561.926C546.667 554.254 544.013 535.473 539.317 530.07C538.224 528.813 537.331 528.62 535.725 528.585C534.71 529.092 533.988 529.524 533.258 530.413C530.048 534.325 532.09 542.158 532.693 546.782C531.254 542.896 528.798 535.606 525.351 533.233C524.095 532.369 523.244 532.49 521.822 532.646C520.597 533.432 520.168 533.637 519.664 535.083C518.964 537.087 519.79 540.014 520.606 541.858C521.174 543.144 521.525 544.345 521.832 545.714C520.789 543.806 519.483 540.852 517.83 539.465C516.582 538.418 514.523 537.897 512.92 538.363C511.661 538.729 511.138 539.58 510.699 540.734C508.819 545.679 515.205 557.525 517.063 562.195C515.178 560.338 512.615 557.692 509.725 557.774Q509.505 557.781 509.287 557.814Q509.069 557.847 508.857 557.905Q508.644 557.964 508.44 558.048Q508.236 558.131 508.044 558.238Q507.852 558.346 507.673 558.475Q507.495 558.604 507.333 558.754Q507.171 558.904 507.029 559.071Q506.886 559.239 506.764 559.423C506.164 560.312 505.873 561.568 506.012 562.631C507.249 572.121 522.96 596.095 527.866 605.985C529.857 609.999 531.137 613.993 532.261 618.323Q529.813 619.15 527.374 620.004C530.863 631.401 535.109 642.689 538.749 654.065Q553.658 699.909 566.129 746.476L450.105 746.456L449.987 471.918Z"/>
</svg>
